HIERARCHY
ROOT Hips
{
	OFFSET 0.00000 0.00000 0.00000
	CHANNELS 6 Xposition Yposition Zposition Zrotation Yrotation Xrotation 
	JOINT LHipJoint
	{
		OFFSET 0 0 0
		CHANNELS 3 Zrotation Yrotation Xrotation
		JOINT LeftUpLeg
		{
			OFFSET 1.74857 -1.85566 0.69197
			CHANNELS 3 Zrotation Yrotation Xrotation
			JOINT LeftLeg
			{
				OFFSET 2.40003 -6.59403 0.00000
				CHANNELS 3 Zrotation Yrotation Xrotation
				JOINT LeftFoot
				{
					OFFSET 2.82169 -7.75254 0.00000
					CHANNELS 3 Zrotation Yrotation Xrotation
					JOINT LeftToeBase
					{
						OFFSET 0.16466 -0.45240 2.26890
						CHANNELS 3 Zrotation Yrotation Xrotation
						End Site
						{
							OFFSET 0.00000 -0.00000 1.16486
						}
					}
				}
			}
		}
	}
	JOINT RHipJoint
	{
		OFFSET 0 0 0
		CHANNELS 3 Zrotation Yrotation Xrotation
		JOINT RightUpLeg
		{
			OFFSET -1.64169 -1.85566 0.69197
			CHANNELS 3 Zrotation Yrotation Xrotation
			JOINT RightLeg
			{
				OFFSET -2.41814 -6.64379 0.00000
				CHANNELS 3 Zrotation Yrotation Xrotation
				JOINT RightFoot
				{
					OFFSET -2.80588 -7.70911 0.00000
					CHANNELS 3 Zrotation Yrotation Xrotation
					JOINT RightToeBase
					{
						OFFSET -0.19098 -0.52472 2.25401
						CHANNELS 3 Zrotation Yrotation Xrotation
						End Site
						{
							OFFSET -0.00000 -0.00000 1.16333
						}
					}
				}
			}
		}
	}
	JOINT LowerBack
	{
		OFFSET 0 0 0
		CHANNELS 3 Zrotation Yrotation Xrotation
		JOINT Spine
		{
			OFFSET -0.02828 2.14690 -0.11061
			CHANNELS 3 Zrotation Yrotation Xrotation
			JOINT Spine1
			{
				OFFSET -0.00167 2.15299 0.00759
				CHANNELS 3 Zrotation Yrotation Xrotation
				JOINT Neck
				{
					OFFSET 0 0 0
					CHANNELS 3 Zrotation Yrotation Xrotation
					JOINT Neck1
					{
						OFFSET -0.09296 1.90118 0.07197
						CHANNELS 3 Zrotation Yrotation Xrotation
						JOINT Head
						{
							OFFSET 0.08490 1.89526 -0.24604
							CHANNELS 3 Zrotation Yrotation Xrotation
							End Site
							{
								OFFSET 0.03186 1.92109 -0.09483
							}
						}
					}
				}
				JOINT LeftShoulder
				{
					OFFSET 0 0 0
					CHANNELS 3 Zrotation Yrotation Xrotation
					JOINT LeftArm
					{
						OFFSET 3.21569 1.44644 -0.03720
						CHANNELS 3 Zrotation Yrotation Xrotation
						JOINT LeftForeArm
						{
							OFFSET 5.47651 -0.00000 -0.00000
							CHANNELS 3 Zrotation Yrotation Xrotation
							JOINT LeftHand
							{
								OFFSET 3.09058 -0.00000 -0.00000
								CHANNELS 3 Zrotation Yrotation Xrotation
								JOINT LeftFingerBase
								{
									OFFSET 0 0 0
									CHANNELS 3 Zrotation Yrotation Xrotation
									JOINT LeftHandIndex1
									{
										OFFSET 0.77161 -0.00000 -0.00000
										CHANNELS 3 Zrotation Yrotation Xrotation
										End Site
										{
											OFFSET 0.62209 -0.00000 -0.00000
										}
									}
								}
								JOINT LThumb
								{
									OFFSET 0 0 0
									CHANNELS 3 Zrotation Yrotation Xrotation
									End Site
									{
										OFFSET 0.63159 -0.00000 0.63159
									}
								}
							}
						}
					}
				}
				JOINT RightShoulder
				{
					OFFSET 0 0 0
					CHANNELS 3 Zrotation Yrotation Xrotation
					JOINT RightArm
					{
						OFFSET -3.38693 1.28904 -0.07093
						CHANNELS 3 Zrotation Yrotation Xrotation
						JOINT RightForeArm
						{
							OFFSET -5.14182 -0.00000 -0.00000
							CHANNELS 3 Zrotation Yrotation Xrotation
							JOINT RightHand
							{
								OFFSET -3.35565 -0.00000 -0.00000
								CHANNELS 3 Zrotation Yrotation Xrotation
								JOINT RightFingerBase
								{
									OFFSET 0 0 0
									CHANNELS 3 Zrotation Yrotation Xrotation
									JOINT RightHandIndex1
									{
										OFFSET -0.80104 -0.00000 -0.00000
										CHANNELS 3 Zrotation Yrotation Xrotation
										End Site
										{
											OFFSET -0.64582 -0.00000 -0.00000
										}
									}
								}
								JOINT RThumb
								{
									OFFSET 0 0 0
									CHANNELS 3 Zrotation Yrotation Xrotation
									End Site
									{
										OFFSET -0.65568 -0.00000 0.65568
									}
								}
							}
						}
					}
				}
			}
		}
	}
}
MOTION
Frames: 14
Frame Time: .0083333
0.6813 17.0897 -1.7282 1.7199 -12.5738 11.5264 0.0000 0.0000 0.0000 -19.5787 -2.9810 -40.0494 6.9128 15.2580 48.5438 1.7454 1.7119 -25.6364 0.2819 -3.4150 -9.4363 0.0000 0.0000 0.0000 9.7325 13.3927 -39.8110 -6.5071 -14.9024 46.9845 -1.1835 2.9448 -19.7980 -0.6675 5.2250 -14.5513 -0.5048 2.1783 21.5084 0.4820 2.7012 5.5001 0.1035 1.2916 -6.0517 -4.8442 -5.0930 -3.1640 5.2122 -6.4905 -9.2867 2.5457 -3.2308 -2.0635 -0.0000 -0.0000 0.0000 -21.5764 -44.5202 -4.4621 35.3549 -45.0639 -15.0640 -0.0000 0.0000 -57.9230 2.4421 33.1759 1.3369 -7.1250 0.0000 -0.0000 -34.2509 59.7606 -13.2747 -0.0000 -0.0000 0.0000 8.6924 30.8479 -23.5400 -21.4814 32.3859 -6.3058 0.0000 -0.0000 -53.7880 -14.6605 12.4009 -3.2155 7.1250 -0.0000 -0.0000 8.7308 -17.2659 5.8143
0.6843 17.0640 -1.7466 1.6301 -12.4852 11.5805 0.0000 0.0000 0.0000 -19.4354 -2.9787 -40.4605 7.0354 15.3616 49.0081 1.7490 1.5964 -25.6159 0.3033 -3.5408 -9.7881 0.0000 0.0000 0.0000 9.7766 13.3955 -40.1794 -6.6244 -15.0073 47.4390 -1.1936 2.9149 -19.8914 -0.6801 5.2731 -14.6892 -0.4323 2.1783 21.5961 0.4892 2.7153 5.5749 0.0650 1.2973 -6.0132 -4.8601 -5.0421 -3.2533 5.2292 -6.4165 -9.3153 2.5521 -3.1927 -2.0602 -0.0000 0.0000 0.0000 -21.7641 -45.2034 -4.0201 35.6823 -45.2932 -15.2963 -0.0000 0.0000 -58.2117 2.1752 33.0098 1.1854 -7.1250 0.0000 -0.0000 -34.3473 59.5626 -13.1523 -0.0000 0.0000 0.0000 8.7286 31.3537 -23.1730 -21.5936 32.5147 -6.3660 0.0000 -0.0000 -54.0799 -14.6451 12.4874 -3.2340 7.1250 -0.0000 -0.0000 8.7407 -17.1789 5.8379
0.6870 17.0383 -1.7635 1.5970 -12.3525 11.6274 0.0000 0.0000 0.0000 -19.3493 -3.0357 -40.8444 7.1579 15.4634 49.4688 1.7600 1.4553 -25.6394 0.3083 -3.5699 -9.8696 0.0000 0.0000 0.0000 9.7604 13.3765 -40.5487 -6.7414 -15.1102 47.8894 -1.2059 2.8999 -20.0000 -0.7012 5.3526 -14.9169 -0.3429 2.1643 21.6530 0.4721 2.7133 5.6693 -0.0034 1.2953 -5.9352 -4.8362 -5.0108 -3.4454 5.1863 -6.3698 -9.2914 2.5261 -3.1674 -2.0231 -0.0000 0.0000 0.0000 -21.8836 -46.0115 -3.6804 35.9183 -45.4568 -15.4642 -0.0000 0.0000 -58.4108 1.3327 33.0647 0.7272 -7.1250 0.0000 -0.0000 -35.2207 59.4138 -13.4117 -0.0000 0.0000 0.0000 8.6854 31.9578 -23.0438 -21.6491 32.5782 -6.3959 0.0000 -0.0000 -54.2854 -14.5023 12.4213 -3.1845 7.1250 -0.0000 -0.0000 8.8402 -17.2561 5.8908
0.6896 17.0140 -1.7814 1.6636 -12.2526 11.6159 0.0000 0.0000 0.0000 -19.3784 -3.1076 -41.1642 7.2750 15.5591 49.9068 1.7676 1.3764 -25.6628 0.3216 -3.6451 -10.0802 0.0000 0.0000 0.0000 9.6351 13.3467 -40.8901 -6.8580 -15.2111 48.3351 -1.2201 2.9319 -20.1155 -0.7122 5.3935 -15.0344 -0.4193 2.1568 21.7608 0.4432 2.6835 5.7306 0.0145 1.2811 -5.9262 -4.7705 -4.9452 -3.5350 5.0861 -6.2858 -9.2297 2.4768 -3.1243 -1.9964 -0.0000 0.0000 0.0000 -21.9752 -46.7157 -3.2136 36.1721 -45.6312 -15.6454 -0.0000 0.0000 -58.8243 0.9111 33.1654 0.4985 -7.1250 0.0000 -0.0000 -35.7288 59.3988 -13.6240 -0.0000 0.0000 0.0000 8.6286 32.6987 -22.9151 -21.6615 32.5923 -6.4025 0.0000 -0.0000 -54.3875 -14.4167 12.3589 -3.1493 7.1250 -0.0000 -0.0000 8.9002 -17.3255 5.9181
0.6911 16.9908 -1.8000 1.6887 -12.1837 11.5910 0.0000 0.0000 0.0000 -19.3504 -3.1495 -41.4637 7.3903 15.6520 50.3356 1.7848 1.1859 -25.7126 0.3150 -3.6077 -9.9755 0.0000 0.0000 0.0000 9.5620 13.3375 -41.1942 -6.9716 -15.3080 48.7670 -1.2327 3.0257 -20.2048 -0.6831 5.2844 -14.7215 -0.5714 2.1622 21.7945 0.4732 2.6586 5.8224 0.1406 1.2700 -5.8520 -4.8018 -4.8404 -3.4123 5.0390 -6.1516 -9.2830 2.4737 -3.0559 -2.0431 0.0000 -0.0000 0.0000 -22.1600 -47.2974 -2.7081 36.5292 -45.8737 -15.9012 -0.0000 0.0000 -59.3222 0.9206 33.2703 0.5051 -7.1250 0.0000 -0.0000 -35.8246 59.4858 -13.7427 0.0000 -0.0000 0.0000 8.5373 33.4026 -22.6453 -21.7404 32.6824 -6.4451 0.0000 -0.0000 -54.4742 -14.4372 12.4416 -3.1747 7.1250 -0.0000 -0.0000 8.8851 -17.2400 5.9247
0.6926 16.9666 -1.8169 1.6474 -12.0850 11.5936 0.0000 0.0000 0.0000 -19.2517 -3.2028 -41.7856 7.5051 15.7429 50.7599 1.7958 1.1139 -25.7635 0.3206 -3.6397 -10.0652 0.0000 0.0000 0.0000 9.5689 13.3201 -41.5036 -7.0870 -15.4048 49.2028 -1.2444 2.9992 -20.3095 -0.7018 5.3546 -14.9227 -0.5511 2.1788 21.7255 0.4891 2.6833 6.0266 0.1467 1.2815 -5.5950 -4.8644 -4.8035 -3.4723 5.0733 -6.0939 -9.4499 2.4994 -3.0252 -2.0881 -0.0000 -0.0000 0.0000 -22.0969 -48.0789 -2.3425 36.9018 -46.1234 -16.1692 -0.0000 0.0000 -59.8111 1.3004 33.3405 0.7148 -7.1250 0.0000 -0.0000 -35.5275 59.6304 -13.7352 -0.0000 -0.0000 0.0000 8.4013 33.9630 -22.6328 -21.8718 32.8318 -6.5162 0.0000 -0.0000 -54.4475 -14.3669 12.3400 -3.1333 7.1250 -0.0000 -0.0000 8.9349 -17.3481 5.9373
0.6938 16.9425 -1.8342 1.6114 -11.9961 11.6228 0.0000 0.0000 0.0000 -19.1456 -3.2923 -42.1235 7.6208 15.8332 51.1852 1.8067 1.0605 -25.8205 0.3284 -3.6833 -10.1872 0.0000 0.0000 0.0000 9.5471 13.3443 -41.8281 -7.2004 -15.4984 49.6284 -1.2563 3.0368 -20.4027 -0.6827 5.2827 -14.7167 -0.4495 2.1889 21.7789 0.4397 2.7114 6.1922 0.0307 1.2943 -5.4361 -4.8127 -4.8097 -3.8068 5.0738 -6.0888 -9.4785 2.4794 -3.0216 -2.0404 0.0000 -0.0000 0.0000 -21.8976 -48.8704 -2.0490 37.1351 -46.2779 -16.3376 -0.0000 0.0000 -59.9226 1.0292 33.0783 0.5617 -7.1250 0.0000 -0.0000 -35.5281 59.3553 -13.4971 0.0000 -0.0000 0.0000 8.2402 34.5565 -22.7579 -21.9165 32.8825 -6.5405 0.0000 -0.0000 -54.3267 -13.9088 12.0490 -2.9592 7.1250 -0.0000 -0.0000 9.2567 -17.6740 6.0897
0.6952 16.9173 -1.8542 1.6583 -11.9275 11.6538 0.0000 0.0000 0.0000 -19.1360 -3.3773 -42.4755 7.7347 15.9206 51.6012 1.8132 0.9824 -25.8375 0.3256 -3.6677 -10.1437 0.0000 0.0000 0.0000 9.4308 13.3611 -42.2057 -7.3144 -15.5910 50.0535 -1.2625 3.0217 -20.4576 -0.6723 5.2433 -14.6039 -0.4663 2.1961 21.8983 0.3731 2.7106 6.2533 -0.0337 1.2936 -5.4285 -4.7181 -4.7729 -3.9332 4.9984 -6.0404 -9.4821 2.4337 -2.9977 -2.0267 -0.0000 0.0000 0.0000 -21.7703 -49.5696 -1.7524 37.1554 -46.2913 -16.3523 -0.0000 0.0000 -59.6542 -0.3579 32.6160 -0.1929 -7.1250 0.0000 -0.0000 -36.4076 58.6677 -13.2739 -0.0000 0.0000 0.0000 8.2240 35.1872 -22.6801 -21.9579 32.9294 -6.5629 0.0000 -0.0000 -54.0890 -13.4222 11.9043 -2.8182 7.1250 -0.0000 -0.0000 9.5974 -17.8514 6.2823
0.6950 16.8953 -1.8735 1.6680 -11.8226 11.6278 0.0000 0.0000 0.0000 -19.0863 -3.4339 -42.7515 7.8445 16.0037 52.0005 1.8213 0.9032 -25.8656 0.3338 -3.7130 -10.2705 0.0000 0.0000 0.0000 9.3985 13.3309 -42.4989 -7.4246 -15.6792 50.4624 -1.2741 2.9303 -20.5726 -0.7188 5.4178 -15.1041 -0.5419 2.1763 22.0391 0.3778 2.6677 6.2753 0.0210 1.2726 -5.4801 -4.7461 -4.6768 -3.6668 4.9529 -5.9223 -9.6103 2.4376 -2.9386 -2.1225 0.0000 -0.0000 0.0000 -21.7921 -50.1682 -1.4143 37.2053 -46.3241 -16.3883 -0.0000 0.0000 -59.5078 -1.8229 32.4331 -0.9779 -7.1250 0.0000 -0.0000 -37.6222 58.1965 -13.3618 0.0000 -0.0000 0.0000 8.2322 35.7826 -22.1579 -22.1107 33.1019 -6.6462 0.0000 -0.0000 -54.1205 -13.1787 11.9287 -2.7709 7.1250 -0.0000 -0.0000 9.7661 -17.8420 6.3980
0.6937 16.8747 -1.8889 1.6218 -11.7271 11.5915 0.0000 0.0000 0.0000 -18.9676 -3.4920 -42.9800 7.9507 16.0829 52.3849 1.8364 0.7658 -25.9216 0.3317 -3.7013 -10.2379 0.0000 0.0000 0.0000 9.4307 13.3262 -42.7304 -7.5317 -15.7637 50.8577 -1.2853 2.9152 -20.6693 -0.7201 5.4226 -15.1179 -0.5877 2.1487 22.1354 0.4094 2.6224 6.3590 0.0916 1.2502 -5.4417 -4.8898 -4.5801 -3.4557 5.0166 -5.7918 -9.8054 2.4981 -2.8713 -2.2260 -0.0000 -0.0000 0.0000 -21.6913 -50.7513 -1.1622 37.3808 -46.4393 -16.5154 -0.0000 0.0000 -59.6202 -2.6088 32.4051 -1.3987 -7.1250 0.0000 -0.0000 -38.3355 58.0020 -13.4811 -0.0000 -0.0000 0.0000 8.1029 36.3817 -21.5033 -22.3572 33.3784 -6.7813 0.0000 -0.0000 -54.6448 -13.1935 12.0650 -2.8053 7.1250 -0.0000 -0.0000 9.7530 -17.7035 6.4193
0.6944 16.8522 -1.9050 1.5984 -11.6372 11.5996 0.0000 0.0000 0.0000 -18.8783 -3.5980 -43.2517 8.0577 16.1615 52.7703 1.8477 0.6736 -25.9677 0.3101 -3.5801 -9.8983 0.0000 0.0000 0.0000 9.4145 13.3141 -43.0219 -7.6365 -15.8453 51.2426 -1.2982 2.9487 -20.7700 -0.7062 5.3712 -14.9703 -0.5911 2.1346 22.1895 0.3912 2.6005 6.4559 0.0801 1.2393 -5.3632 -4.8552 -4.4975 -3.5021 4.9642 -5.6821 -9.8253 2.4740 -2.8157 -2.2325 -0.0000 -0.0000 0.0000 -21.4038 -51.4203 -0.9847 37.5433 -46.5451 -16.6333 -0.0000 0.0000 -59.6212 -3.3179 32.1803 -1.7685 -7.1250 0.0000 -0.0000 -38.7831 57.6702 -13.3502 -0.0000 -0.0000 0.0000 7.9661 36.9579 -21.0152 -22.5907 33.6382 -6.9102 0.0000 -0.0000 -55.2362 -13.2333 12.1522 -2.8341 7.1250 -0.0000 -0.0000 9.7235 -17.6129 6.4190
0.6951 16.8285 -1.9214 1.6355 -11.5408 11.6251 0.0000 0.0000 0.0000 -18.8551 -3.7188 -43.5596 8.1648 16.2391 53.1541 1.8475 0.6507 -25.9585 0.3103 -3.5812 -9.9014 0.0000 0.0000 0.0000 9.3210 13.2915 -43.3540 -7.7402 -15.9248 51.6214 -1.3075 2.9775 -20.8414 -0.6956 5.3315 -14.8564 -0.6050 2.1503 22.2279 0.3288 2.6124 6.5323 0.0183 1.2451 -5.2975 -4.6432 -4.4455 -3.5419 4.7995 -5.6237 -9.8505 2.3814 -2.7894 -2.2462 -0.0000 0.0000 0.0000 -21.1138 -52.1769 -0.7264 37.7621 -46.6867 -16.7923 -0.0000 0.0000 -59.5843 -3.9904 31.9519 -2.1142 -7.1250 0.0000 -0.0000 -39.1917 57.3460 -13.2027 -0.0000 0.0000 0.0000 7.8990 37.4888 -20.7087 -22.7615 33.8270 -7.0051 0.0000 -0.0000 -55.4985 -13.0356 12.1159 -2.7821 7.1250 -0.0000 -0.0000 9.8614 -17.6621 6.5020
0.6938 16.8051 -1.9352 1.5747 -11.4432 11.6588 0.0000 0.0000 0.0000 -18.7185 -3.7810 -43.8776 8.2743 16.3173 53.5448 1.8540 0.5590 -25.9713 0.3285 -3.6837 -10.1884 0.0000 0.0000 0.0000 9.3401 13.3222 -43.6293 -7.8422 -16.0020 51.9923 -1.3217 2.9405 -20.9662 -0.6821 5.2806 -14.7106 -0.5542 2.1617 22.2780 0.3085 2.6354 6.5936 -0.0387 1.2561 -5.2535 -4.5875 -4.4177 -3.5018 4.7694 -5.5891 -9.9527 2.3661 -2.7734 -2.2911 -0.0000 0.0000 0.0000 -20.9386 -52.8799 -0.3828 38.0274 -46.8568 -16.9856 -0.0000 0.0000 -59.7338 -4.3656 31.6421 -2.2935 -7.1250 0.0000 -0.0000 -39.2476 57.0228 -12.9058 -0.0000 0.0000 0.0000 7.7905 38.0726 -20.4500 -22.9156 33.9964 -7.0911 0.0000 -0.0000 -55.7523 -12.8280 11.9519 -2.6998 7.1250 -0.0000 -0.0000 10.0092 -17.8401 6.5627
0.6944 16.7840 -1.9477 1.4830 -11.3330 11.6540 0.0000 0.0000 0.0000 -18.5624 -3.8350 -44.1246 8.3826 16.3936 53.9293 1.8667 0.4100 -26.0083 0.3225 -3.6501 -10.0942 0.0000 0.0000 0.0000 9.4149 13.2994 -43.8399 -7.9422 -16.0765 52.3541 -1.3413 2.9150 -21.1320 -0.6898 5.3096 -14.7938 -0.4568 2.1601 22.3496 0.3229 2.6537 6.6745 -0.0839 1.2644 -5.1986 -4.6876 -4.3840 -3.4869 4.8047 -5.5395 -10.0191 2.3981 -2.7458 -2.3152 -0.0000 -0.0000 0.0000 -20.7698 -53.5518 -0.0785 38.3460 -47.0588 -17.2184 -0.0000 0.0000 -60.0560 -4.4793 31.4181 -2.3384 -7.1250 0.0000 -0.0000 -39.1444 56.8225 -12.6658 -0.0000 -0.0000 0.0000 7.5901 38.6745 -20.2088 -23.0371 34.1293 -7.1591 0.0000 -0.0000 -55.9880 -12.6906 11.8657 -2.6511 7.1250 -0.0000 -0.0000 10.1067 -17.9351 6.6071
